<svg width="64" height="64" viewBox="0 0 64 64" fill="none" xmlns="http://www.w3.org/2000/svg">
<path d="M54 13.5C54.2761 13.5 54.5 13.7239 54.5 14V44C54.5 44.663 54.2364 45.2987 53.7676 45.7676C53.2987 46.2364 52.663 46.5 52 46.5H42C41.337 46.5 40.7013 46.2364 40.2324 45.7676C39.7636 45.2987 39.5 44.663 39.5 44V38.5H24.5V52C24.5 52.663 24.2364 53.2987 23.7676 53.7676C23.2987 54.2364 22.663 54.5 22 54.5H12C11.337 54.5 10.7013 54.2364 10.2324 53.7676C9.76358 53.2987 9.5 52.663 9.5 52V14C9.5 13.7239 9.72386 13.5 10 13.5H54Z" stroke="#7B4AE2" stroke-linecap="round" stroke-linejoin="round"/>
<path d="M24 30H10" stroke="#7B4AE2" stroke-linecap="round" stroke-linejoin="round"/>
<path d="M24 14V38" stroke="#7B4AE2" stroke-linecap="round" stroke-linejoin="round"/>
<path d="M40 30H54" stroke="#7B4AE2" stroke-linecap="round" stroke-linejoin="round"/>
<path d="M40 14V38" stroke="#7B4AE2" stroke-linecap="round" stroke-linejoin="round"/>
<g filter="url(#filter0_d_21_2891)">
<circle cx="32" cy="34" r="20" fill="#7B4AE2" fill-opacity="0.2" shape-rendering="crispEdges"/>
</g>
<defs>
<filter id="filter0_d_21_2891" x="8" y="14" width="48" height="48" filterUnits="userSpaceOnUse" color-interpolation-filters="sRGB">
<feFlood flood-opacity="0" result="BackgroundImageFix"/>
<feColorMatrix in="SourceAlpha" type="matrix" values="0 0 0 0 0 0 0 0 0 0 0 0 0 0 0 0 0 0 127 0" result="hardAlpha"/>
<feOffset dy="4"/>
<feGaussianBlur stdDeviation="2"/>
<feComposite in2="hardAlpha" operator="out"/>
<feColorMatrix type="matrix" values="0 0 0 0 0 0 0 0 0 0 0 0 0 0 0 0 0 0 0.25 0"/>
<feBlend mode="normal" in2="BackgroundImageFix" result="effect1_dropShadow_21_2891"/>
<feBlend mode="normal" in="SourceGraphic" in2="effect1_dropShadow_21_2891" result="shape"/>
</filter>
</defs>
</svg>
